<?xml version="1.0" encoding="UTF-8" standalone="no"?>
<svg width="120px" height="22px" viewBox="0 0 120 22" version="1.1" xmlns="http://www.w3.org/2000/svg" xmlns:xlink="http://www.w3.org/1999/xlink">
    <!-- Generator: Sketch 39.1 (31720) - http://www.bohemiancoding.com/sketch -->
    <title>codepen</title>
    <desc>Created with Sketch.</desc>
    <defs></defs>
    <g id="Design-2" stroke="none" stroke-width="1" fill="none" fill-rule="evenodd">
        <g id="codepen" fill="#9B9B9B">
            <g id="Group">
                <path d="M7.53116503,5.36717841 C8.87621358,5.36717841 10.108835,5.85358617 11.0670874,6.65717841 L12.3696117,5.1047512 C11.0600971,4.00407159 9.37252425,3.3394114 7.53174759,3.3394114 C3.37864078,3.3394114 0,6.7180522 0,10.8708677 C0,15.0242658 3.37864078,18.4029066 7.53203883,18.4017415 C9.37281553,18.4017415 11.0603883,17.7370813 12.3699029,16.6364017 L11.0673787,15.0839745 C10.1102913,15.8881493 8.87679609,16.3739745 7.53174759,16.3739745 C4.49708737,16.3739745 2.02805825,13.9052367 2.02805825,10.8708677 C2.02776699,7.8364988 4.49708737,5.36659589 7.53203883,5.36717841 L7.53116503,5.36717841 L7.53116503,5.36717841 L7.53116503,5.36717841 Z" id="Shape"></path>
                <path d="M49.221262,3.77426578 L45.1660195,3.77426578 C44.6062137,3.77426578 44.1524271,4.22834344 44.1524271,4.78785802 L44.1524271,16.9535862 C44.1524271,17.5128095 44.6067961,17.9671784 45.1660195,17.9671784 L49.221262,17.9671784 C53.1346603,17.9671784 56.3178642,14.7836833 56.3178642,10.8705765 C56.3178642,6.95688712 53.1349514,3.77339198 49.2203883,3.77426578 L49.221262,3.77426578 L49.221262,3.77426578 L49.221262,3.77426578 Z M49.221262,15.9399939 L46.1799028,15.9399939 L46.1799028,5.80203277 L49.221262,5.80203277 C52.016505,5.80203277 54.2892234,8.07679003 54.2892234,10.871159 C54.2903883,13.6675667 52.016505,15.9394114 49.2203883,15.9399939 L49.221262,15.9399939 L49.221262,15.9399939 L49.221262,15.9399939 Z" id="Shape"></path>
                <path d="M61.8075727,4.78814925 L61.8075727,16.9538774 C61.8075727,17.5131007 62.2619419,17.9674696 62.8211648,17.9674696 L71.2698056,17.9674696 L71.2698056,15.9399939 L63.8353397,15.9399939 L63.8353397,11.88446 L68.5663106,11.88446 L68.5663106,9.85698422 L63.8353397,9.85698422 L63.8353397,5.80203277 L71.2698056,5.80203277 L71.2698056,3.77455704 L62.8211648,3.77455704 C62.2616503,3.77339198 61.808738,4.22776092 61.808738,4.78814925 L61.8075727,4.78814925 L61.8075727,4.78814925 L61.8075727,4.78814925 Z" id="Shape"></path>
                <path d="M92.4958252,4.78814925 L92.4958252,16.9538774 C92.4958252,17.5131007 92.9501944,17.9674696 93.5094173,17.9674696 L101.957767,17.9674696 L101.957767,15.9399939 L94.5233011,15.9399939 L94.5233011,11.88446 L99.2545631,11.88446 L99.2545631,9.85698422 L94.5233011,9.85698422 L94.5233011,5.80203277 L101.957767,5.80203277 L101.957767,3.77455704 L93.5097089,3.77455704 C92.9499028,3.77339198 92.4961167,4.22776092 92.4961167,4.78814925 L92.4958252,4.78814925 L92.4958252,4.78814925 L92.4958252,4.78814925 Z" id="Shape"></path>
                <path d="M82.8474759,3.77426578 L78.4540777,3.77426578 C77.894272,3.77426578 77.4404855,4.22834344 77.4404855,4.78785802 L77.4404855,17.9674696 L79.4682525,17.9674696 L79.4682525,11.88446 L82.847767,11.88446 C85.0837866,11.88446 86.9030095,10.0652367 86.9030095,7.82950852 C86.9027184,5.59378036 85.083495,3.77339198 82.8466017,3.77426578 L82.8474759,3.77426578 L82.8474759,3.77426578 L82.8474759,3.77426578 Z M82.8474759,9.85698422 L79.4679609,9.85698422 L79.4679609,5.80203277 L82.8474759,5.80203277 C83.9656313,5.80203277 84.8746603,6.71077064 84.8746603,7.82950852 C84.8746603,8.94824634 83.9656313,9.85785802 82.8466017,9.85698422 L82.8474759,9.85698422 L82.8474759,9.85698422 L82.8474759,9.85698422 Z" id="Shape"></path>
                <path d="M117.808544,3.77426578 L117.808544,14.1536833 L109.463301,4.13892598 C109.190097,3.81067355 108.74068,3.68892598 108.33932,3.83455704 C107.937961,3.9801881 107.670583,4.36115899 107.670583,4.78785802 L107.670583,17.9674696 L109.69835,17.9674696 L109.69835,7.58834344 L118.043592,17.6028095 C118.240194,17.8387318 118.527087,17.9668871 118.821262,17.9668871 C118.936602,17.9668871 119.053398,17.9476638 119.166408,17.9065959 C119.567767,17.7609648 119.835146,17.3799939 119.835146,16.9532949 L119.835146,3.77368324 L117.808544,3.77368324 L117.808544,3.77426578 L117.808544,3.77426578 L117.808544,3.77426578 Z" id="Shape"></path>
                <path d="M38.3927184,7.41445997 C38.387767,7.38824634 38.383398,7.36203277 38.3764078,7.3364017 C38.3720388,7.32096483 38.3667961,7.3064017 38.3618447,7.29125606 C38.3545631,7.26853762 38.3469902,7.24581919 38.3379612,7.22368327 C38.3315534,7.20824634 38.3242718,7.19339198 38.3172816,7.17853762 C38.3073788,7.15756673 38.2971844,7.13688712 38.2855341,7.11679003 C38.2773788,7.10193567 38.2680584,7.08795511 38.2590291,7.07368327 C38.2465048,7.05445997 38.2336894,7.03552791 38.2197087,7.01717841 C38.2095145,7.00348908 38.1990291,6.99038227 38.1879612,6.9772755 C38.173398,6.95979975 38.1576698,6.9431978 38.1419416,6.92688712 C38.1297087,6.91465411 38.1174757,6.90242109 38.1046601,6.89047936 C38.087767,6.87504248 38.0702913,6.86047936 38.0519416,6.8464988 C38.0379612,6.83572209 38.0242718,6.82465411 38.0097087,6.8147512 C38.0044659,6.81096483 37.9998059,6.80659589 37.9942718,6.80310075 L28.11,0.21300364 C27.7980584,0.0047512125 27.3911651,0.0047512125 27.0792232,0.21300364 L17.1943689,6.80280947 C17.188835,6.80630461 17.184466,6.81067355 17.178932,6.81445997 C17.1643689,6.82465411 17.1506796,6.83543081 17.136699,6.84620752 C17.1186408,6.86047936 17.1008738,6.87504248 17.0839806,6.88989684 C17.071165,6.90154734 17.058932,6.91378036 17.0469903,6.92630461 C17.0306796,6.94261528 17.015534,6.95921723 17.0006796,6.97669298 C16.9896117,6.98979975 16.9791262,7.00290656 16.968932,7.01746964 C16.9549515,7.03581919 16.9421359,7.05445997 16.9296117,7.0739745 C16.9205825,7.08824634 16.9115534,7.10222695 16.9031068,7.11708131 C16.8914563,7.13717841 16.8812621,7.15785802 16.8716505,7.17824634 C16.8646602,7.19310075 16.8570874,7.20824634 16.8509709,7.22339198 C16.8419417,7.24552791 16.8340777,7.26824634 16.8267961,7.29096483 C16.8218446,7.30611042 16.816602,7.32096483 16.8125243,7.33465411 C16.8058253,7.36028517 16.8008738,7.38620752 16.7962136,7.41271237 C16.7935922,7.42611042 16.7903883,7.43921723 16.7886408,7.45290656 C16.783398,7.49310075 16.7804854,7.53329489 16.7804854,7.57436287 L16.7804854,14.165625 C16.7804854,14.2064017 16.783398,14.2471784 16.7892233,14.2870813 C16.7912621,14.3016444 16.7950485,14.3132949 16.7979612,14.3272755 C16.8026213,14.3534891 16.806699,14.3797027 16.8154369,14.4059163 C16.8195146,14.4204794 16.8241748,14.4350425 16.83,14.4510619 C16.8372816,14.4743629 16.8445631,14.4976638 16.853301,14.518926 C16.8594175,14.5334891 16.8678641,14.5480522 16.8736893,14.5626153 C16.883301,14.5830037 16.8940777,14.603392 16.9057282,14.6246541 C16.9138835,14.6392172 16.9232039,14.6537804 16.9319417,14.6671784 C16.944466,14.6875667 16.9581554,14.7050425 16.9727184,14.7225182 C16.9829126,14.7370813 16.9931068,14.7487318 17.0047573,14.7627124 C17.0196117,14.7801881 17.0338835,14.7976638 17.0513592,14.8131007 C17.063301,14.8247512 17.0746602,14.8393143 17.0892233,14.8480522 C17.1061165,14.8626153 17.1241748,14.8771784 17.1416505,14.892324 C17.1556311,14.9039745 17.1707767,14.9127124 17.1824272,14.9240716 C17.1879612,14.9269842 17.191165,14.9328095 17.1969903,14.9354308 L27.0792232,21.5287318 C27.2353399,21.6335862 27.4141748,21.6860133 27.5947573,21.6851396 C27.7753399,21.6842658 27.9541748,21.6327124 28.1102913,21.5287318 L37.9951455,14.938926 C38.0006796,14.9354308 38.0053399,14.9313532 38.0105824,14.9275667 C38.0251455,14.9173726 38.0388349,14.9065959 38.0528156,14.8958192 C38.0708738,14.8815473 38.0886408,14.866693 38.1055341,14.8515473 C38.1183495,14.8401881 38.1305824,14.8276638 38.1428156,14.8154308 C38.1588349,14.7991201 38.1742718,14.7825182 38.1888349,14.7650425 C38.1999028,14.7519357 38.2103883,14.7388289 38.2205824,14.7248483 C38.2345631,14.7064988 38.2473788,14.6875667 38.2599028,14.6683434 C38.2689321,14.6543629 38.2779612,14.640091 38.2864078,14.6258192 C38.2980584,14.6054308 38.3082525,14.5847512 38.3181553,14.5637804 C38.3251455,14.548926 38.3324271,14.5340716 38.3388349,14.518926 C38.347864,14.4964988 38.3554369,14.4737804 38.3627184,14.4510619 C38.3676698,14.4359163 38.3729126,14.4210619 38.3772816,14.4059163 C38.3839805,14.3802852 38.3886408,14.3540716 38.3935922,14.327858 C38.3959223,14.31446 38.3994176,14.3013532 38.4008738,14.2876638 C38.4061165,14.2474696 38.4090291,14.2072755 38.4090291,14.1662075 L38.4090291,7.57611042 C38.4090291,7.53504248 38.4058252,7.4948483 38.4008738,7.45465411 C38.3985436,7.44038227 38.3941748,7.42873181 38.391262,7.41445997 L38.3927184,7.41445997 L38.3927184,7.41445997 L38.3927184,7.41445997 Z M27.5944659,13.0696056 L24.3075729,10.871159 L27.5944659,8.67242109 L30.8816505,10.871159 L27.5944659,13.0696056 L27.5944659,13.0696056 L27.5944659,13.0696056 Z M26.6653399,7.05795511 L22.6360194,9.75300366 L19.3834951,7.5772755 L26.6653399,2.72280947 L26.6653399,7.05795511 L26.6653399,7.05795511 L26.6653399,7.05795511 Z M20.964466,10.8708677 L18.6396117,12.4259163 L18.6396117,9.31581919 L20.964466,10.8708677 L20.964466,10.8708677 L20.964466,10.8708677 Z M22.6360194,11.9898968 L26.6653399,14.6846541 L26.6653399,19.0197997 L19.3834951,14.1647512 L22.6360194,11.9893143 L22.6360194,11.9898968 L22.6360194,11.9898968 L22.6360194,11.9898968 Z M28.5238835,14.6840716 L32.5532039,11.9893143 L35.8060195,14.1647512 L28.5238835,19.0192172 L28.5238835,14.6840716 L28.5238835,14.6840716 L28.5238835,14.6840716 Z M34.2247573,10.8714502 L36.5499028,9.31611042 L36.5499028,12.4264988 L34.2247573,10.8708677 L34.2247573,10.8714502 L34.2247573,10.8714502 L34.2247573,10.8714502 Z M32.5532039,9.75300366 L28.5238835,7.05824634 L28.5238835,2.72280947 L35.8060195,7.5772755 L32.5532039,9.75300366 L32.5532039,9.75300366 L32.5532039,9.75300366 Z" id="Shape"></path>
            </g>
        </g>
    </g>
</svg>