<?xml version="1.0" encoding="UTF-8" standalone="no"?>
<svg width="42px" height="42px" viewBox="0 0 42 42" version="1.1" xmlns="http://www.w3.org/2000/svg" xmlns:xlink="http://www.w3.org/1999/xlink">
    <!-- Generator: Sketch 39.1 (31720) - http://www.bohemiancoding.com/sketch -->
    <title>fitness</title>
    <desc>Created with Sketch.</desc>
    <defs></defs>
    <g id="Design-2" stroke="none" stroke-width="1" fill="none" fill-rule="evenodd">
        <g id="fitness" transform="translate(-4.000000, -4.000000)">
            <g id="Group">
                <polygon id="Shape" points="0 0 50 0 50 50 0 50"></polygon>
                <polygon id="Shape" fill="#364652" points="42.8541667 30.9583333 45.8333333 27.9791667 42.8541667 25 35.4166667 32.4375 17.5625 14.5833333 25 7.14583333 22.0208333 4.16666667 19.0416667 7.14583333 16.0625 4.16666667 11.6041667 8.625 8.625 5.64583333 5.64583333 8.625 8.625 11.6041667 4.16666667 16.0625 7.14583333 19.0416667 4.16666667 22.0208333 7.14583333 25 14.5833333 17.5625 32.4375 35.4166667 25 42.8541667 27.9791667 45.8333333 30.9583333 42.8541667 33.9375 45.8333333 38.3958333 41.375 41.375 44.3541667 44.3541667 41.375 41.375 38.3958333 45.8333333 33.9375"></polygon>
            </g>
        </g>
    </g>
</svg>