<?xml version="1.0" encoding="UTF-8"?>
<svg width="32px" height="32px" viewBox="0 0 32 32" version="1.1" xmlns="http://www.w3.org/2000/svg" xmlns:xlink="http://www.w3.org/1999/xlink">
    <!-- Generator: Sketch 39.1 (31720) - http://www.bohemiancoding.com/sketch -->
    <title>github-icon</title>
    <desc>Created with Sketch.</desc>
    <defs></defs>
    <g id="Design-2" stroke="none" stroke-width="1" fill="none" fill-rule="evenodd">
        <g id="social-media-section" transform="translate(-216.000000, 0.000000)" fill="#161614">
            <g id="social-icons">
                <g id="github-icon" transform="translate(216.000000, 0.000000)">
                    <path d="M16.0001325,0 C7.16466158,0 0,7.16333678 0,16.0001325 C0,23.0694101 4.58452496,29.0669427 10.9418671,31.1826124 C11.7415028,31.3307224 12.0350735,30.8355206 12.0350735,30.4129166 C12.0350735,30.0313806 12.020236,28.7709874 12.0133471,27.434022 C7.56209481,28.4019044 6.62282759,25.546214 6.62282759,25.546214 C5.8949948,23.6968248 4.846301,23.2050672 4.846301,23.2050672 C3.39460981,22.2120141 4.95572758,22.2324156 4.95572758,22.2324156 C6.56241774,22.3452866 7.40842062,23.8812337 7.40842062,23.8812337 C8.83547094,26.3273029 11.1514469,25.6201366 12.0644836,25.2113103 C12.2080894,24.177189 12.6227449,23.4713475 13.0803229,23.0717946 C9.52647487,22.6672075 5.79060237,21.295268 5.79060237,15.1644628 C5.79060237,13.4176111 6.41563235,11.990296 7.43915546,10.8697992 C7.27302835,10.4668019 6.72536536,8.83944525 7.59415443,6.63554545 C7.59415443,6.63554545 8.93774376,6.20552266 11.9953301,8.27561994 C13.2716209,7.9211095 14.6403809,7.74332436 16.0001325,7.7372304 C17.3598841,7.74332436 18.729704,7.9211095 20.0083791,8.27561994 C23.0622563,6.20552266 24.4039907,6.63554545 24.4039907,6.63554545 C25.2748996,8.83944525 24.7269716,10.4668019 24.5608445,10.8697992 C25.5867522,11.990296 26.2075429,13.4176111 26.2075429,15.1644628 C26.2075429,21.3098406 22.4645166,22.6629684 18.9016601,23.0590767 C19.4755537,23.5556035 19.9869177,24.5293148 19.9869177,26.0220741 C19.9869177,28.1629146 19.968371,29.8859201 19.968371,30.4129166 C19.968371,30.8387001 20.2563775,31.3376113 21.0674063,31.1804926 C27.421304,29.0624384 32,23.0670255 32,16.0001325 C32,7.16333678 24.8363984,0 16.0001325,0 L16.0001325,0 Z M5.99256991,22.7925265 C5.95733081,22.8720131 5.83227181,22.8958591 5.71834096,22.8412784 C5.60229044,22.789082 5.53711142,22.6807152 5.5747351,22.6009637 C5.6091793,22.5190924 5.73450325,22.4963062 5.85028879,22.551152 C5.96660427,22.6033482 6.03284314,22.7127749 5.99256991,22.7925265 L5.99256991,22.7925265 Z M6.77959865,23.4947818 C6.70329148,23.5655249 6.55412154,23.5326704 6.45290852,23.4208592 C6.3482511,23.309313 6.32864441,23.160143 6.4060114,23.08834 C6.48470317,23.0175969 6.6293689,23.0507164 6.73429128,23.1622626 C6.83894865,23.2751336 6.85935024,23.4232438 6.77959865,23.4947818 L6.77959865,23.4947818 Z M7.31953016,24.3932934 C7.22149665,24.461387 7.06119857,24.3975326 6.96210521,24.2552516 C6.86407166,24.1129705 6.86407166,23.9423391 6.96422488,23.8739806 C7.06358314,23.8056221 7.22149665,23.8670919 7.32191476,24.0083131 C7.41968336,24.1529787 7.41968336,24.32361 7.31953016,24.3932934 L7.31953016,24.3932934 Z M8.2326699,25.4338967 C8.14496964,25.5306057 7.95817604,25.50464 7.82145896,25.3726923 C7.68156249,25.2436588 7.64261403,25.0605745 7.73057926,24.9638658 C7.81933932,24.8668921 8.00719278,24.8941825 8.14496964,25.0250705 C8.28380633,25.153839 8.3261992,25.338248 8.2326699,25.4338967 L8.2326699,25.4338967 Z M9.41281439,25.7851928 C9.37413092,25.9105167 9.19422613,25.9674821 9.01299655,25.9142261 C8.83203195,25.8593804 8.71359685,25.7125951 8.75016071,25.5859464 C8.78778437,25.4598276 8.96848401,25.4004775 9.15103836,25.4574429 C9.33173801,25.5120238 9.4504381,25.6577492 9.41281439,25.7851928 L9.41281439,25.7851928 Z M10.7558684,25.9342034 C10.7603726,26.0661511 10.6066984,26.1755777 10.4164604,26.1779625 C10.2251625,26.1822018 10.0704285,26.0754247 10.0683088,25.9455965 C10.0683088,25.8123239 10.2185386,25.7039571 10.4098365,25.7007776 C10.6000745,25.6970683 10.7558684,25.8030504 10.7558684,25.9342034 L10.7558684,25.9342034 Z M12.0752684,25.8836279 C12.0980546,26.0123964 11.9658418,26.144609 11.7769285,26.1798481 C11.5911947,26.2137624 11.4192386,26.1342758 11.3956575,26.0065672 C11.3726064,25.8746194 11.5072038,25.7424066 11.6926727,25.7082275 C11.8818509,25.675373 12.0511574,25.7527399 12.0752684,25.8836279 L12.0752684,25.8836279 Z" id="Shape"></path>
                </g>
            </g>
        </g>
    </g>
</svg>