<?xml version="1.0" encoding="UTF-8" standalone="no"?>
<svg width="32px" height="25px" viewBox="0 0 32 25" version="1.1" xmlns="http://www.w3.org/2000/svg" xmlns:xlink="http://www.w3.org/1999/xlink">
    <!-- Generator: Sketch 39.1 (31720) - http://www.bohemiancoding.com/sketch -->
    <title>google-gmail</title>
    <desc>Created with Sketch.</desc>
    <defs>
        <linearGradient x1="0.00388991071%" y1="49.997619%" x2="100.032232%" y2="49.997619%" id="linearGradient-1">
            <stop stop-color="#000000" stop-opacity="0.1" offset="0%"></stop>
            <stop stop-color="#000000" stop-opacity="0.2" offset="100%"></stop>
        </linearGradient>
    </defs>
    <g id="Design-2" stroke="none" stroke-width="1" fill="none" fill-rule="evenodd">
        <g id="google-gmail">
            <g id="Group">
                <path d="M29.8542404,24.1993759 L2.01927744,24.1993759 C0.939962555,24.1993759 0.0310658068,23.3188821 0.0310658068,22.2111642 L0.0310658068,2.10182373 C0.0310658068,1.02250884 0.911559531,0.113612093 2.01927744,0.113612093 L29.8542404,0.113612093 C30.9335553,0.113612093 31.842452,0.994105818 31.842452,2.10182373 L31.842452,22.2111642 C31.842452,23.3188821 30.9619582,24.1993759 29.8542404,24.1993759 L29.8542404,24.1993759 L29.8542404,24.1993759 Z" id="Shape" fill="#E3E3E3"></path>
                <polygon id="Shape" fill="#231F20" opacity="0.1" points="4.00748907 24.1993759 15.9083559 14.627557 15.993565 14.1163026 3.72345885 5.28296235 3.69505582 23.7733305"></polygon>
                <path d="M2.01927744,24.1993759 C0.911559531,24.1993759 0.0310658068,23.3188821 0.0310658068,22.2111642 L0.0310658068,2.0734207 C0.0310658068,0.965702795 0.911559531,0.766881631 2.01927744,0.766881631 C3.12699535,0.766881631 4.00748907,0.994105818 4.00748907,2.0734207 L4.00748907,24.1993759 L2.01927744,24.1993759 L2.01927744,24.1993759 L2.01927744,24.1993759 Z" id="Shape" fill="#D54B3D"></path>
                <path d="M2.01927744,1.05091187 C3.43942861,1.05091187 3.72345885,1.47695721 3.72345885,2.0734207 L3.72345885,23.9153456 L2.01927744,23.9153456 C1.08197767,23.9153456 0.31509604,23.148464 0.31509604,22.2111642 L0.31509604,2.0734207 C0.31509604,1.44855419 0.599126274,1.05091187 2.01927744,1.05091187 L2.01927744,1.05091187 L2.01927744,1.05091187 Z M2.01927744,0.766881631 C0.911559531,0.766881631 0.0310658068,0.994105818 0.0310658068,2.0734207 L0.0310658068,22.2111642 C0.0310658068,23.3188821 0.911559531,24.1993759 2.01927744,24.1993759 L4.00748907,24.1993759 L4.00748907,2.0734207 C4.00748907,0.965702795 3.12699535,0.766881631 2.01927744,0.766881631 L2.01927744,0.766881631 L2.01927744,0.766881631 L2.01927744,0.766881631 Z" id="Shape" fill="#D72B27"></path>
                <path d="M29.8542404,24.1993759 L27.8660288,24.1993759 L27.8660288,2.01661466 C27.8660288,0.908896748 28.7465224,0.766881631 29.8542404,0.766881631 C30.9619582,0.766881631 31.842452,0.908896748 31.842452,2.01661466 L31.842452,22.2395673 C31.842452,23.3188821 30.9619582,24.1993759 29.8542404,24.1993759 L29.8542404,24.1993759 L29.8542404,24.1993759 Z" id="Shape" fill="#D54B3D"></path>
                <path d="M29.8542404,1.05091187 C31.1323764,1.05091187 31.5584218,1.30653908 31.5584218,2.01661466 L31.5584218,22.2395673 C31.5584218,23.1768671 30.7915401,23.9437488 29.8542404,23.9437488 L28.150059,23.9437488 L28.150059,2.01661466 C28.150059,1.27813605 28.5761043,1.05091187 29.8542404,1.05091187 L29.8542404,1.05091187 L29.8542404,1.05091187 Z M29.8542404,0.766881631 C28.7465224,0.766881631 27.8660288,0.908896748 27.8660288,2.01661466 L27.8660288,24.2277789 L29.8542404,24.2277789 C30.9619582,24.2277789 31.842452,23.3472852 31.842452,22.2395673 L31.842452,2.01661466 C31.842452,0.908896748 30.9619582,0.766881631 29.8542404,0.766881631 L29.8542404,0.766881631 L29.8542404,0.766881631 L29.8542404,0.766881631 Z" id="Shape" fill="#D72B27"></path>
                <path d="M21.3333334,24.1993759 L0.197474883,2.8993443 L1.30920186,3.35155676 L16.021968,13.9458845 L31.8424525,2.34505789 L31.842452,22.2395673 C31.842452,23.3188821 30.9619582,24.1993759 29.8542404,24.1993759 L21.3333334,24.1993759 L21.3333334,24.1993759 Z" id="Shape" fill="url(#linearGradient-1)"></path>
                <path d="M15.9083559,14.627557 L0.883156507,3.72079606 C0.00266278344,3.06752652 -0.252964427,1.8177935 0.40030511,0.937299771 C1.05357465,0.0568060467 2.3317107,-0.142015116 3.24060745,0.511254421 L15.9367589,9.74223701 L28.7181194,0.397642328 C29.5986131,-0.25562721 30.8483461,-0.0568060468 31.5016157,0.852090701 C32.1548852,1.73258443 31.9560641,2.98231745 31.0471674,3.63558699 L15.9083559,14.627557 L15.9083559,14.627557 L15.9083559,14.627557 Z" id="Shape" fill="#D54B3D"></path>
                <path d="M29.8542404,0.284030234 L29.8542404,0.284030234 C30.3938978,0.284030234 30.9051523,0.539657444 31.2459885,0.994105818 C31.7856459,1.76098745 31.6152278,2.81189931 30.8767491,3.37995978 L15.9083559,14.2867208 L1.05357465,3.49357188 C0.286693017,2.92551141 0.0878718535,1.84619653 0.627529297,1.10771791 C0.939962555,0.681672561 1.47962,0.397642328 2.04768046,0.397642328 C2.41691978,0.397642328 2.78615908,0.511254421 3.07018931,0.738478608 L15.7379378,9.94105818 L15.9083559,10.0546703 L16.078774,9.94105818 L28.8317315,0.596463491 C29.1441648,0.397642328 29.485001,0.284030234 29.8542404,0.284030234 L29.8542404,0.284030234 L29.8542404,0.284030234 Z M29.8542404,0 C29.456598,0 29.0305526,0.113612093 28.6897164,0.369239304 L15.9083559,9.71383399 L3.21220442,0.482851398 C2.87136814,0.227224188 2.44532279,0.113612093 2.01927744,0.113612093 C1.39441092,0.113612093 0.769544415,0.397642328 0.371902087,0.937299771 C-0.252964427,1.8177935 0.00266278344,3.06752652 0.883156507,3.72079606 L15.9083559,14.65596 L31.0187643,3.63558699 C31.899258,2.98231745 32.0980792,1.76098745 31.4732126,0.852090701 C31.0755704,0.284030234 30.4791069,0 29.8542404,0 L29.8542404,0 L29.8542404,0 L29.8542404,0 Z" id="Shape" fill="#D72B27"></path>
            </g>
        </g>
    </g>
</svg>