<?xml version="1.0" encoding="UTF-8"?>
<svg width="32px" height="32px" viewBox="0 0 32 32" version="1.1" xmlns="http://www.w3.org/2000/svg" xmlns:xlink="http://www.w3.org/1999/xlink">
    <!-- Generator: Sketch 39.1 (31720) - http://www.bohemiancoding.com/sketch -->
    <title>linkedin</title>
    <desc>Created with Sketch.</desc>
    <defs></defs>
    <g id="Design-2" stroke="none" stroke-width="1" fill="none" fill-rule="evenodd">
        <g id="social-media-section" transform="translate(-144.000000, 0.000000)" fill="#1D87BD">
            <g id="social-icons">
                <g id="linkedin" transform="translate(144.000000, 0.000000)">
                    <path d="M6.4,25.6 L6.4,12.192 L10.496,12.192 L10.496,25.6 L6.4,25.6 M10.624,8.48 C10.656,9.632 9.792,10.56 8.416,10.56 C7.136,10.56 6.304,9.632 6.304,8.48 C6.304,7.296 7.168,6.4 8.48,6.4 C9.792,6.4 10.624,7.296 10.624,8.48 M21.376,25.6 L21.376,18.176 C21.376,16.448 20.8,15.264 19.296,15.264 C18.176,15.264 17.504,16.064 17.184,16.832 C17.088,17.12 17.056,17.504 17.056,17.888 L17.056,25.6 L12.96,25.6 L12.96,16.48 C12.96,14.816 12.896,13.408 12.864,12.192 L16.416,12.192 L16.608,14.08 L16.672,14.08 C17.216,13.184 18.56,11.904 20.768,11.904 C23.456,11.904 25.504,13.728 25.504,17.696 L25.504,25.6 L21.376,25.6 M32,2.816 C32,1.28 30.72,0 29.184,0 L2.816,0 C1.28,0 0,1.28 0,2.816 L0,29.184 C0,30.72 1.28,32 2.816,32 L29.184,32 C30.72,32 32,30.72 32,29.184 L32,2.816" id="Shape"></path>
                </g>
            </g>
        </g>
    </g>
</svg>