<?xml version="1.0" encoding="UTF-8" standalone="no"?>
<svg width="37px" height="37px" viewBox="0 0 37 37" version="1.1" xmlns="http://www.w3.org/2000/svg" xmlns:xlink="http://www.w3.org/1999/xlink">
    <!-- Generator: Sketch 39.1 (31720) - http://www.bohemiancoding.com/sketch -->
    <title>plane</title>
    <desc>Created with Sketch.</desc>
    <defs></defs>
    <g id="Design-2" stroke="none" stroke-width="1" fill="none" fill-rule="evenodd">
        <g id="plane" transform="translate(21.355339, 17.355339) rotate(45.000000) translate(-21.355339, -17.355339) translate(-3.644661, -7.644661)">
            <g id="Group">
                <path d="M43.75,33.3333333 L43.75,29.1666667 L27.0833333,18.75 L27.0833333,7.29166667 C27.0833333,5.5625 25.6875,4.16666667 23.9583333,4.16666667 C22.2291667,4.16666667 20.8333333,5.5625 20.8333333,7.29166667 L20.8333333,18.75 L4.16666667,29.1666667 L4.16666667,33.3333333 L20.8333333,28.125 L20.8333333,39.5833333 L16.6666667,42.7083333 L16.6666667,45.8333333 L23.9583333,43.75 L31.25,45.8333333 L31.25,42.7083333 L27.0833333,39.5833333 L27.0833333,28.125 L43.75,33.3333333 L43.75,33.3333333 Z" id="Shape" fill="#03A9F4"></path>
                <polygon id="Shape" points="0 0 50 0 50 50 0 50"></polygon>
            </g>
        </g>
    </g>
</svg>