<?xml version="1.0" encoding="UTF-8"?>
<svg width="32px" height="27px" viewBox="0 0 32 27" version="1.1" xmlns="http://www.w3.org/2000/svg" xmlns:xlink="http://www.w3.org/1999/xlink">
    <!-- Generator: Sketch 39.1 (31720) - http://www.bohemiancoding.com/sketch -->
    <title>twitter (2)</title>
    <desc>Created with Sketch.</desc>
    <defs></defs>
    <g id="Design-2" stroke="none" stroke-width="1" fill="none" fill-rule="evenodd">
        <g id="social-media-section" transform="translate(0.000000, -3.000000)" fill="#55ACEE">
            <g id="social-icons">
                <g id="twitter-(2)" transform="translate(0.000000, 3.000000)">
                    <path d="M32,3.22223368 C30.8226051,3.75111517 29.5573064,4.10856366 28.2292695,4.26932656 C29.5848129,3.44630586 30.6257288,2.1431305 31.1159296,0.590393241 C29.8474706,1.35235722 28.4424156,1.90577995 26.9469987,2.20406865 C25.7493544,0.911681929 24.0431325,0.104073611 22.1548996,0.104073611 C18.5290756,0.104073611 15.5895095,3.08138831 15.5895095,6.75368244 C15.5895095,7.27485775 15.6476827,7.78239903 15.7595815,8.26907433 C10.3032298,7.99177018 5.46571565,5.34439881 2.22767475,1.32129537 C1.66256264,2.30341916 1.33880537,3.44571308 1.33880537,4.66435752 C1.33880537,6.97135257 2.49794068,9.00673419 4.25952669,10.1991776 C3.18326201,10.1646776 2.17102307,9.86555901 1.28578221,9.36750226 C1.28531402,9.39524454 1.28531402,9.42310536 1.28531402,9.45108474 C1.28531402,12.6729819 3.54833754,15.3606626 6.55169538,15.9714667 C6.00074619,16.1234565 5.42076886,16.2046678 4.82194668,16.2046678 C4.39893193,16.2046678 3.98762207,16.1630544 3.58684663,16.0853997 C4.42222466,18.7273176 6.84677566,20.6498332 9.71962397,20.7035393 C7.47275321,22.4869879 4.64192545,23.550086 1.56611434,23.550086 C1.03623395,23.550086 0.513610592,23.5186685 0,23.4572561 C2.90538791,25.3439675 6.35634076,26.4447667 10.0638648,26.4447667 C22.1395661,26.4447667 28.7429971,16.3120802 28.7429971,7.52477529 C28.7429971,7.23644538 28.7366765,6.9496567 28.7240353,6.66452779 C30.0066571,5.72698132 31.1197922,4.55575957 32,3.22223368" id="Shape"></path>
                </g>
            </g>
        </g>
    </g>
</svg>