<?xml version="1.0" encoding="UTF-8"?>
<svg width="32px" height="24px" viewBox="0 0 32 24" version="1.1" xmlns="http://www.w3.org/2000/svg" xmlns:xlink="http://www.w3.org/1999/xlink">
    <!-- Generator: Sketch 39.1 (31720) - http://www.bohemiancoding.com/sketch -->
    <title>youtube (2)</title>
    <desc>Created with Sketch.</desc>
    <defs>
        <linearGradient x1="49.9804764%" y1="8.68053889e-07%" x2="49.9804764%" y2="100.030167%" id="linearGradient-1">
            <stop stop-color="#E52D27" offset="0%"></stop>
            <stop stop-color="#BF171D" offset="100%"></stop>
        </linearGradient>
    </defs>
    <g id="Design-2" stroke="none" stroke-width="1" fill="none" fill-rule="evenodd">
        <g id="social-media-section" transform="translate(-72.000000, -4.000000)">
            <g id="social-icons">
                <g id="youtube-(2)" transform="translate(72.000000, 4.000000)">
                    <g id="Group">
                        <polygon id="Shape" fill="#FFFFFF" points="12.712402 16.2829112 21.3298938 11.5800177 12.712402 6.83771446 12.712402 16.2829112"></polygon>
                        <polygon id="Shape" fill="#420000" opacity="0.12" points="12.712402 6.83771446 20.2713868 12.158027 21.3298938 11.5800177 12.712402 6.83771446"></polygon>
                        <path d="M31.6037689,5.1956427 C31.6037689,5.1956427 31.2925649,2.88360566 30.3340566,1.85895289 C29.1265851,0.519022331 27.7697356,0.519022331 27.1348794,0.440202887 C22.6908862,0.0986519608 16.006224,0.0986519608 16.006224,0.0986519608 L15.993776,0.0986519608 C15.993776,0.0986519608 9.30911383,0.0986519608 4.84022428,0.440202887 C4.21781626,0.519022331 2.86096679,0.519022331 1.64104708,1.85895289 C0.694986895,2.88360566 0.383782887,5.1956427 0.383782887,5.1956427 C0.383782887,5.1956427 0.060130719,7.92805011 0.060130719,10.6473209 L0.060130719,13.1958163 C0.060130719,15.9150871 0.383782887,18.634358 0.383782887,18.634358 C0.383782887,18.634358 0.694986895,20.946395 1.65349524,21.9710478 C2.86096679,23.3109783 4.45433131,23.2715686 5.16387644,23.4029344 C7.71574931,23.6656658 15.993776,23.7444853 15.993776,23.7444853 C15.993776,23.7444853 22.6908862,23.7313487 27.1473275,23.3897978 C27.7697356,23.3109783 29.1265851,23.3109783 30.3465048,21.9710478 C31.3050131,20.946395 31.6162171,18.634358 31.6162171,18.634358 C31.6162171,18.634358 31.9398693,15.9150871 31.9398693,13.1958163 L31.9398693,10.6473209 C31.9274211,7.92805011 31.6037689,5.1956427 31.6037689,5.1956427 L31.6037689,5.1956427 L31.6037689,5.1956427 Z M12.7074616,16.2829112 L12.7074616,6.83771446 L21.3215885,11.5800177 L12.7074616,16.2829112 L12.7074616,16.2829112 L12.7074616,16.2829112 Z" id="Shape" fill="url(#linearGradient-1)"></path>
                    </g>
                </g>
            </g>
        </g>
    </g>
</svg>